<svg width="704" height="451" viewBox="0 0 704 451" fill="none" xmlns="http://www.w3.org/2000/svg">
<path d="M138.658 78.8643H121.48V96.0415H138.658V78.8643Z" fill="#E6E6E6"/>
<path d="M138.658 106.539H121.48V123.716H138.658V106.539Z" fill="black"/>
<path d="M138.658 134.213H121.48V151.391H138.658V134.213Z" fill="#E6E6E6"/>
<path d="M138.658 161.888H121.48V179.065H138.658V161.888Z" fill="#E6E6E6"/>
<path d="M138.658 189.562H121.48V206.74H138.658V189.562Z" fill="#E6E6E6"/>
<path d="M168.241 267.812H151.064V284.989H168.241V267.812Z" fill="#E6E6E6"/>
<path d="M138.658 267.812H121.48V284.989H138.658V267.812Z" fill="black"/>
<path d="M176.352 342.25H119.095V399.507H176.352V342.25Z" fill="#E6E6E6"/>
<path d="M703.876 0.398926H0.300415V451H703.876V0.398926Z" fill="#E6E6E6"/>
<path d="M683.758 56.9155H20.419V228.688H683.758V56.9155Z" fill="white"/>
<path d="M325.699 81.7271H185.418V89.7797H325.699V81.7271Z" fill="#E6E6E6"/>
<path d="M402.043 111.101H185.418V119.154H402.043V111.101Z" fill="black"/>
<path d="M361.963 138.775H185.418V146.828H361.963V138.775Z" fill="#E6E6E6"/>
<path d="M288.482 166.346H185.418V174.398H288.482V166.346Z" fill="#E6E6E6"/>
<path d="M340.968 193.916H185.418V201.968H340.968V193.916Z" fill="#E6E6E6"/>
<path d="M590.993 117.99H533.736V175.248H590.993V117.99Z" fill="#E6E6E6"/>
<path d="M683.758 252.546H20.419V424.319H683.758V252.546Z" fill="white"/>
<path d="M412.724 305.375C407.488 296.512 400.224 289.017 391.528 283.508C382.832 277.999 372.952 274.633 362.702 273.686C352.451 272.739 342.122 274.239 332.564 278.061C323.006 281.884 314.491 287.921 307.721 295.675L303.535 292.017C310.882 283.599 320.124 277.044 330.499 272.894C340.873 268.743 352.085 267.115 363.212 268.142C374.339 269.17 385.063 272.824 394.502 278.805C403.941 284.786 411.826 292.921 417.508 302.544L412.724 305.375Z" fill="#E6E6E6"/>
<path d="M415.344 377.794L410.73 374.692C417.563 364.501 421.376 352.586 421.729 340.322C422.081 328.057 418.96 315.942 412.724 305.376L417.508 302.544C424.279 314.015 427.668 327.167 427.286 340.481C426.903 353.796 422.763 366.731 415.344 377.794V377.794Z" fill="black"/>
<path d="M304.114 385.539C292.623 372.705 286.221 356.113 286.115 338.888C286.008 321.662 292.204 304.992 303.535 292.018L307.721 295.676C297.283 307.628 291.575 322.985 291.674 338.854C291.772 354.722 297.669 370.007 308.255 381.83L304.114 385.539Z" fill="black"/>
<path d="M356.714 409.053C346.787 409.045 336.973 406.947 327.91 402.896C318.848 398.845 310.74 392.931 304.114 385.539L308.255 381.83C314.864 389.214 323.074 394.99 332.257 398.718C341.439 402.445 351.352 404.025 361.239 403.336C371.125 402.648 380.724 399.709 389.301 394.744C397.879 389.78 405.208 382.921 410.73 374.692L415.344 377.794C408.89 387.418 400.164 395.305 389.939 400.757C379.713 406.208 368.302 409.058 356.714 409.053V409.053Z" fill="black"/>
<path d="M590.993 305.032H533.736V362.289H590.993V305.032Z" fill="#E6E6E6"/>
<path d="M703.576 0H0V29.8905H703.576V0Z" fill="black"/>
<path d="M22.2122 20.8216C25.2719 20.8216 27.7522 18.3413 27.7522 15.2817C27.7522 12.222 25.2719 9.7417 22.2122 9.7417C19.1526 9.7417 16.6722 12.222 16.6722 15.2817C16.6722 18.3413 19.1526 20.8216 22.2122 20.8216Z" fill="white"/>
<path d="M43.2405 20.8216C46.3002 20.8216 48.7805 18.3413 48.7805 15.2817C48.7805 12.222 46.3002 9.7417 43.2405 9.7417C40.1809 9.7417 37.7006 12.222 37.7006 15.2817C37.7006 18.3413 40.1809 20.8216 43.2405 20.8216Z" fill="white"/>
<path d="M64.2689 20.8216C67.3285 20.8216 69.8088 18.3413 69.8088 15.2817C69.8088 12.222 67.3285 9.7417 64.2689 9.7417C61.2092 9.7417 58.7289 12.222 58.7289 15.2817C58.7289 18.3413 61.2092 20.8216 64.2689 20.8216Z" fill="white"/>
</svg>
