<svg width="704" height="509" viewBox="0 0 704 509" fill="none" xmlns="http://www.w3.org/2000/svg">
<path d="M138.658 78.8643H121.48V96.0415H138.658V78.8643Z" fill="#E6E6E6"/>
<path d="M138.658 106.539H121.48V123.716H138.658V106.539Z" fill="black"/>
<path d="M138.658 134.213H121.48V151.391H138.658V134.213Z" fill="#E6E6E6"/>
<path d="M138.658 161.888H121.48V179.065H138.658V161.888Z" fill="#E6E6E6"/>
<path d="M138.658 189.562H121.48V206.74H138.658V189.562Z" fill="#E6E6E6"/>
<path d="M168.241 267.812H151.064V284.989H168.241V267.812Z" fill="#E6E6E6"/>
<path d="M138.658 267.812H121.48V284.989H138.658V267.812Z" fill="black"/>
<path d="M176.352 342.25H119.095V399.507H176.352V342.25Z" fill="#E6E6E6"/>
<path d="M703.876 0.398926H0.300415V451H703.876V0.398926Z" fill="#E6E6E6"/>
<path d="M683.758 56.9155H20.419V228.688H683.758V56.9155Z" fill="white"/>
<path d="M325.699 81.7271H185.418V89.7797H325.699V81.7271Z" fill="#E6E6E6"/>
<path d="M402.043 111.101H185.418V119.154H402.043V111.101Z" fill="black"/>
<path d="M361.963 138.775H185.418V146.828H361.963V138.775Z" fill="#E6E6E6"/>
<path d="M288.482 166.346H185.418V174.398H288.482V166.346Z" fill="#E6E6E6"/>
<path d="M340.968 193.916H185.418V201.968H340.968V193.916Z" fill="#E6E6E6"/>
<path d="M590.993 117.99H533.736V175.248H590.993V117.99Z" fill="#E6E6E6"/>
<path d="M683.758 252.546H20.419V424.319H683.758V252.546Z" fill="white"/>
<path d="M412.724 305.375C407.488 296.512 400.224 289.017 391.528 283.508C382.832 277.999 372.952 274.633 362.702 273.686C352.451 272.739 342.122 274.239 332.564 278.061C323.006 281.884 314.491 287.921 307.721 295.675L303.535 292.017C310.882 283.599 320.124 277.044 330.499 272.894C340.873 268.743 352.085 267.115 363.212 268.142C374.339 269.17 385.063 272.824 394.502 278.805C403.941 284.786 411.826 292.921 417.508 302.544L412.724 305.375Z" fill="#E6E6E6"/>
<path d="M415.344 377.794L410.73 374.692C417.563 364.501 421.376 352.586 421.729 340.322C422.081 328.057 418.96 315.942 412.724 305.376L417.508 302.544C424.279 314.015 427.668 327.167 427.286 340.481C426.903 353.796 422.763 366.731 415.344 377.794V377.794Z" fill="black"/>
<path d="M304.114 385.539C292.623 372.705 286.221 356.113 286.115 338.888C286.008 321.662 292.204 304.992 303.535 292.018L307.721 295.676C297.283 307.628 291.575 322.985 291.674 338.854C291.772 354.722 297.669 370.007 308.255 381.83L304.114 385.539Z" fill="black"/>
<path d="M356.714 409.053C346.787 409.045 336.973 406.947 327.91 402.896C318.848 398.845 310.74 392.931 304.114 385.539L308.255 381.83C314.864 389.214 323.074 394.99 332.257 398.718C341.439 402.445 351.352 404.025 361.239 403.336C371.125 402.648 380.724 399.709 389.301 394.744C397.879 389.78 405.208 382.921 410.73 374.692L415.344 377.794C408.89 387.418 400.164 395.305 389.939 400.757C379.713 406.208 368.302 409.058 356.714 409.053V409.053Z" fill="black"/>
<path d="M590.993 305.032H533.736V362.289H590.993V305.032Z" fill="#E6E6E6"/>
<path d="M703.576 0H0V29.8905H703.576V0Z" fill="black"/>
<path d="M22.2122 20.8216C25.2719 20.8216 27.7522 18.3413 27.7522 15.2817C27.7522 12.222 25.2719 9.7417 22.2122 9.7417C19.1526 9.7417 16.6722 12.222 16.6722 15.2817C16.6722 18.3413 19.1526 20.8216 22.2122 20.8216Z" fill="white"/>
<path d="M43.2405 20.8216C46.3002 20.8216 48.7805 18.3413 48.7805 15.2817C48.7805 12.222 46.3002 9.7417 43.2405 9.7417C40.1809 9.7417 37.7006 12.222 37.7006 15.2817C37.7006 18.3413 40.1809 20.8216 43.2405 20.8216Z" fill="white"/>
<path d="M64.2689 20.8216C67.3285 20.8216 69.8088 18.3413 69.8088 15.2817C69.8088 12.222 67.3285 9.7417 64.2689 9.7417C61.2092 9.7417 58.7289 12.222 58.7289 15.2817C58.7289 18.3413 61.2092 20.8216 64.2689 20.8216Z" fill="white"/>
<path d="M230.743 481.636H227.074V495.517H226.895L217.31 481.636H214.009V502H217.697V488.129H217.866L227.462 502H230.743V481.636ZM241.265 502.298C245.74 502.298 248.583 499.146 248.583 494.423C248.583 489.69 245.74 486.528 241.265 486.528C236.791 486.528 233.947 489.69 233.947 494.423C233.947 499.146 236.791 502.298 241.265 502.298ZM241.285 499.415C238.809 499.415 237.596 497.207 237.596 494.413C237.596 491.619 238.809 489.382 241.285 489.382C243.721 489.382 244.934 491.619 244.934 494.413C244.934 497.207 243.721 499.415 241.285 499.415ZM258.743 502H262.432V495.119H266.33C271.033 495.119 273.558 492.295 273.558 488.378C273.558 484.49 271.062 481.636 266.379 481.636H258.743V502ZM262.432 492.087V484.719H265.812C268.577 484.719 269.8 486.21 269.8 488.378C269.8 490.545 268.577 492.087 265.832 492.087H262.432ZM283.047 502.298C287.521 502.298 290.365 499.146 290.365 494.423C290.365 489.69 287.521 486.528 283.047 486.528C278.572 486.528 275.728 489.69 275.728 494.423C275.728 499.146 278.572 502.298 283.047 502.298ZM283.066 499.415C280.591 499.415 279.377 497.207 279.377 494.413C279.377 491.619 280.591 489.382 283.066 489.382C285.502 489.382 286.716 491.619 286.716 494.413C286.716 497.207 285.502 499.415 283.066 499.415ZM293.42 502H297.019V493.021C297.019 491.082 298.481 489.71 300.46 489.71C301.066 489.71 301.822 489.82 302.13 489.919V486.608C301.802 486.548 301.235 486.509 300.837 486.509C299.087 486.509 297.626 487.503 297.069 489.273H296.91V486.727H293.42V502ZM312.968 486.727H309.955V483.068H306.356V486.727H304.188V489.511H306.356V498.003C306.336 500.876 308.424 502.288 311.129 502.209C312.153 502.179 312.859 501.98 313.246 501.851L312.64 499.037C312.441 499.087 312.033 499.176 311.586 499.176C310.681 499.176 309.955 498.858 309.955 497.406V489.511H312.968V486.727ZM323.714 486.727H320.542V485.524C320.542 484.331 321.039 483.665 322.382 483.665C322.949 483.665 323.426 483.794 323.724 483.884L324.45 481.099C323.983 480.94 322.958 480.682 321.716 480.682C319.061 480.682 316.943 482.203 316.943 485.286V486.727H314.686V489.511H316.943V502H320.542V489.511H323.714V486.727ZM332.621 502.298C337.095 502.298 339.939 499.146 339.939 494.423C339.939 489.69 337.095 486.528 332.621 486.528C328.146 486.528 325.303 489.69 325.303 494.423C325.303 499.146 328.146 502.298 332.621 502.298ZM332.641 499.415C330.165 499.415 328.952 497.207 328.952 494.413C328.952 491.619 330.165 489.382 332.641 489.382C335.077 489.382 336.29 491.619 336.29 494.413C336.29 497.207 335.077 499.415 332.641 499.415ZM346.593 481.636H342.994V502H346.593V481.636ZM350.295 502H353.894V486.727H350.295V502ZM352.104 484.56C353.248 484.56 354.183 483.685 354.183 482.611C354.183 481.527 353.248 480.652 352.104 480.652C350.951 480.652 350.016 481.527 350.016 482.611C350.016 483.685 350.951 484.56 352.104 484.56ZM364.257 502.298C368.732 502.298 371.576 499.146 371.576 494.423C371.576 489.69 368.732 486.528 364.257 486.528C359.783 486.528 356.939 489.69 356.939 494.423C356.939 499.146 359.783 502.298 364.257 502.298ZM364.277 499.415C361.801 499.415 360.588 497.207 360.588 494.413C360.588 491.619 361.801 489.382 364.277 489.382C366.713 489.382 367.926 491.619 367.926 494.413C367.926 497.207 366.713 499.415 364.277 499.415ZM386.702 490.764C386.205 488.179 384.136 486.528 380.557 486.528C376.878 486.528 374.372 488.338 374.382 491.162C374.372 493.389 375.744 494.861 378.678 495.467L381.283 496.014C382.685 496.322 383.341 496.889 383.341 497.754C383.341 498.798 382.207 499.584 380.497 499.584C378.847 499.584 377.773 498.868 377.464 497.496L373.955 497.834C374.402 500.638 376.759 502.298 380.507 502.298C384.325 502.298 387.02 500.32 387.03 497.426C387.02 495.249 385.618 493.916 382.734 493.29L380.129 492.733C378.578 492.385 377.962 491.848 377.972 490.963C377.962 489.929 379.105 489.213 380.607 489.213C382.267 489.213 383.142 490.118 383.42 491.122L386.702 490.764ZM397.102 502H400.791V493.349H409.253V490.257H400.791V484.729H410.148V481.636H397.102V502ZM418.89 502.298C423.365 502.298 426.208 499.146 426.208 494.423C426.208 489.69 423.365 486.528 418.89 486.528C414.416 486.528 411.572 489.69 411.572 494.423C411.572 499.146 414.416 502.298 418.89 502.298ZM418.91 499.415C416.434 499.415 415.221 497.207 415.221 494.413C415.221 491.619 416.434 489.382 418.91 489.382C421.346 489.382 422.559 491.619 422.559 494.413C422.559 497.207 421.346 499.415 418.91 499.415ZM438.998 495.577C438.998 497.903 437.337 499.057 435.746 499.057C434.016 499.057 432.863 497.834 432.863 495.895V486.727H429.263V496.452C429.263 500.121 431.352 502.199 434.354 502.199C436.641 502.199 438.252 500.996 438.948 499.286H439.107V502H442.597V486.727H438.998V495.577ZM449.898 493.051C449.898 490.844 451.23 489.571 453.13 489.571C454.989 489.571 456.103 490.794 456.103 492.832V502H459.702V492.276C459.712 488.616 457.624 486.528 454.472 486.528C452.185 486.528 450.614 487.622 449.918 489.322H449.739V486.727H446.299V502H449.898V493.051ZM469.029 502.268C471.654 502.268 472.837 500.707 473.404 499.594H473.623V502H477.162V481.636H473.553V489.253H473.404C472.857 488.149 471.733 486.528 469.039 486.528C465.509 486.528 462.735 489.293 462.735 494.384C462.735 499.415 465.429 502.268 469.029 502.268ZM470.033 499.315C467.657 499.315 466.404 497.227 466.404 494.364C466.404 491.52 467.637 489.482 470.033 489.482C472.35 489.482 473.623 491.401 473.623 494.364C473.623 497.327 472.33 499.315 470.033 499.315Z" fill="black"/>
</svg>
