<svg width="127" height="127" viewBox="0 0 127 127" fill="none" xmlns="http://www.w3.org/2000/svg">
<g clip-path="url(#clip0)">
<path d="M80.5199 28.5385H46.6949C45.9241 28.5395 45.1852 28.857 44.6401 29.4215C44.0951 29.9859 43.7885 30.7512 43.7875 31.5495V109.403L43.3999 109.525L35.102 112.157C34.7088 112.281 34.284 112.238 33.921 112.038C33.558 111.839 33.2863 111.498 33.1658 111.091L8.48356 27.5971C8.36344 27.1898 8.40438 26.7499 8.59737 26.3738C8.79037 25.9978 9.11963 25.7165 9.5128 25.5918L22.2997 21.5371L59.3694 9.78634L72.1562 5.73159C72.3508 5.66957 72.5553 5.6479 72.758 5.66781C72.9607 5.68773 73.1576 5.74885 73.3375 5.84766C73.5173 5.94648 73.6766 6.08105 73.8062 6.24369C73.9358 6.40632 74.0331 6.59383 74.0926 6.79546L80.4017 28.1371L80.5199 28.5385Z" fill="#F2F2F2"/>
<path d="M87.902 28.1384L80.2981 2.41685C80.1715 1.98828 79.9647 1.58972 79.6894 1.24396C79.4141 0.8982 79.0757 0.612006 78.6936 0.401733C78.3114 0.19146 77.893 0.0612271 77.4623 0.0184819C77.0315 -0.0242633 76.5968 0.0213165 76.1831 0.152612L58.2055 5.85134L21.1377 17.6041L3.16014 23.3048C2.325 23.5704 1.62572 24.1683 1.2158 24.9672C0.805879 25.7662 0.718806 26.7009 0.973697 27.5663L26.9623 115.472C27.1693 116.171 27.5871 116.782 28.1543 117.217C28.7216 117.651 29.4084 117.886 30.114 117.887C30.4405 117.887 30.7652 117.836 31.0772 117.736L43.4009 113.83L43.7885 113.706V113.286L43.4009 113.408L30.9629 117.353C30.2257 117.586 29.4295 117.506 28.7489 117.132C28.0684 116.757 27.559 116.118 27.3325 115.356L1.34593 27.4479C1.23372 27.0699 1.19461 26.6727 1.23084 26.279C1.26707 25.8854 1.37793 25.503 1.55707 25.1537C1.73621 24.8045 1.98012 24.4953 2.27481 24.2438C2.56951 23.9923 2.90921 23.8035 3.27447 23.6882L21.2521 17.9875L58.3199 6.23674L76.2975 0.53601C76.5745 0.448452 76.8626 0.403807 77.1522 0.403528C77.7739 0.404973 78.3787 0.612519 78.8782 0.995766C79.3777 1.37901 79.7455 1.91782 79.9279 2.53327L87.4969 28.1384L87.6171 28.5399H88.0202L87.902 28.1384Z" fill="#3F3D56"/>
<path d="M24.6072 25.6572C24.2336 25.657 23.8699 25.5327 23.5695 25.3027C23.2691 25.0727 23.0478 24.749 22.938 24.3792L20.4415 15.9342C20.3744 15.7073 20.3511 15.469 20.3729 15.2328C20.3948 14.9967 20.4614 14.7673 20.5689 14.5578C20.6763 14.3482 20.8226 14.1627 20.9993 14.0117C21.1761 13.8608 21.3798 13.7473 21.5988 13.6779L55.7009 2.86585C56.1433 2.72604 56.6211 2.77372 57.0296 2.99842C57.4381 3.22312 57.7438 3.60647 57.8796 4.06435L60.3762 12.5095C60.5111 12.9677 60.465 13.4625 60.2481 13.8855C60.0311 14.3085 59.661 14.6251 59.2189 14.7659L25.1168 25.5779C24.9517 25.6304 24.7799 25.6571 24.6072 25.6572V25.6572Z" fill="black"/>
<path d="M37.6854 9.02334C39.8264 9.02334 41.562 7.22594 41.562 5.00874C41.562 2.79154 39.8264 0.994141 37.6854 0.994141C35.5444 0.994141 33.8088 2.79154 33.8088 5.00874C33.8088 7.22594 35.5444 9.02334 37.6854 9.02334Z" fill="black"/>
<path d="M37.6852 7.55138C39.041 7.55138 40.14 6.41321 40.14 5.00921C40.14 3.60521 39.041 2.46704 37.6852 2.46704C36.3295 2.46704 35.2305 3.60521 35.2305 5.00921C35.2305 6.41321 36.3295 7.55138 37.6852 7.55138Z" fill="white"/>
<path d="M117.636 116.86H52.1223C51.6855 116.859 51.2667 116.679 50.9578 116.36C50.649 116.04 50.4752 115.606 50.4747 115.154V33.8581C50.4752 33.4057 50.649 32.972 50.9578 32.6521C51.2667 32.3323 51.6855 32.1524 52.1223 32.1519H117.636C118.073 32.1524 118.492 32.3323 118.801 32.6522C119.11 32.972 119.283 33.4057 119.284 33.8581V115.154C119.283 115.606 119.11 116.04 118.801 116.36C118.492 116.679 118.073 116.859 117.636 116.86V116.86Z" fill="#E6E6E6"/>
<path d="M87.4959 28.1372H46.695C45.8215 28.1385 44.9841 28.4984 44.3664 29.1381C43.7487 29.7778 43.4011 30.645 43.3999 31.5496V113.407L43.7876 113.285V31.5496C43.7885 30.7514 44.0951 29.9861 44.6402 29.4216C45.1852 28.8572 45.9242 28.5396 46.695 28.5387H87.6161L87.4959 28.1372ZM123.063 28.1372H46.695C45.8215 28.1385 44.9841 28.4984 44.3664 29.1381C43.7487 29.7778 43.4011 30.645 43.3999 31.5496V123.484C43.4011 124.389 43.7487 125.256 44.3664 125.895C44.9841 126.535 45.8215 126.895 46.695 126.896H123.063C123.937 126.895 124.774 126.535 125.392 125.895C126.01 125.256 126.357 124.389 126.359 123.484V31.5496C126.357 30.645 126.01 29.7778 125.392 29.1381C124.774 28.4984 123.937 28.1385 123.063 28.1372V28.1372ZM125.971 123.484C125.97 124.282 125.663 125.047 125.118 125.612C124.573 126.176 123.834 126.494 123.063 126.495H46.695C45.9242 126.494 45.1852 126.176 44.6402 125.612C44.0951 125.047 43.7885 124.282 43.7876 123.484V31.5496C43.7885 30.7514 44.0951 29.9861 44.6402 29.4216C45.1852 28.8572 45.9242 28.5396 46.695 28.5387H123.063C123.834 28.5396 124.573 28.8572 125.118 29.4216C125.663 29.9861 125.97 30.7514 125.971 31.5496V123.484Z" fill="#3F3D56"/>
<path d="M102.712 36.9692H67.0471C66.5846 36.9686 66.1412 36.7781 65.8141 36.4395C65.4871 36.1008 65.3031 35.6416 65.3026 35.1626V26.3305C65.3031 25.8515 65.4871 25.3923 65.8141 25.0537C66.1412 24.715 66.5846 24.5245 67.0471 24.5239H102.712C103.174 24.5245 103.617 24.715 103.944 25.0537C104.272 25.3923 104.455 25.8515 104.456 26.3305V35.1626C104.455 35.6416 104.272 36.1008 103.944 36.4395C103.617 36.7781 103.174 36.9686 102.712 36.9692V36.9692Z" fill="black"/>
<path d="M84.8791 25.1264C87.0201 25.1264 88.7557 23.329 88.7557 21.1118C88.7557 18.8946 87.0201 17.0972 84.8791 17.0972C82.7382 17.0972 81.0026 18.8946 81.0026 21.1118C81.0026 23.329 82.7382 25.1264 84.8791 25.1264Z" fill="black"/>
<path d="M84.8794 23.557C86.1834 23.557 87.2406 22.4623 87.2406 21.1118C87.2406 19.7613 86.1834 18.6665 84.8794 18.6665C83.5753 18.6665 82.5182 19.7613 82.5182 21.1118C82.5182 22.4623 83.5753 23.557 84.8794 23.557Z" fill="white"/>
</g>
<defs>
<clipPath id="clip0">
<rect width="125.53" height="126.896" fill="white" transform="translate(0.828125)"/>
</clipPath>
</defs>
</svg>
