<svg width="704" height="509" viewBox="0 0 704 509" fill="none" xmlns="http://www.w3.org/2000/svg">
<path d="M138.658 78.8643H121.48V96.0415H138.658V78.8643Z" fill="#E6E6E6"/>
<path d="M138.658 106.539H121.48V123.716H138.658V106.539Z" fill="black"/>
<path d="M138.658 134.213H121.48V151.391H138.658V134.213Z" fill="#E6E6E6"/>
<path d="M138.658 161.888H121.48V179.065H138.658V161.888Z" fill="#E6E6E6"/>
<path d="M138.658 189.562H121.48V206.74H138.658V189.562Z" fill="#E6E6E6"/>
<path d="M168.241 267.812H151.064V284.989H168.241V267.812Z" fill="#E6E6E6"/>
<path d="M138.658 267.812H121.48V284.989H138.658V267.812Z" fill="black"/>
<path d="M176.352 342.25H119.095V399.507H176.352V342.25Z" fill="#E6E6E6"/>
<path d="M703.876 0.398926H0.300415V451H703.876V0.398926Z" fill="#E6E6E6"/>
<path d="M683.758 56.9155H20.419V228.688H683.758V56.9155Z" fill="white"/>
<path d="M325.699 81.7271H185.418V89.7797H325.699V81.7271Z" fill="#E6E6E6"/>
<path d="M402.043 111.101H185.418V119.154H402.043V111.101Z" fill="black"/>
<path d="M361.963 138.775H185.418V146.828H361.963V138.775Z" fill="#E6E6E6"/>
<path d="M288.482 166.346H185.418V174.398H288.482V166.346Z" fill="#E6E6E6"/>
<path d="M340.968 193.916H185.418V201.968H340.968V193.916Z" fill="#E6E6E6"/>
<path d="M590.993 117.99H533.736V175.248H590.993V117.99Z" fill="#E6E6E6"/>
<path d="M683.758 252.546H20.419V424.319H683.758V252.546Z" fill="white"/>
<path d="M412.724 305.375C407.488 296.512 400.224 289.017 391.528 283.508C382.832 277.999 372.952 274.633 362.702 273.686C352.451 272.739 342.122 274.239 332.564 278.061C323.006 281.884 314.491 287.921 307.721 295.675L303.535 292.017C310.882 283.599 320.124 277.044 330.499 272.894C340.873 268.743 352.085 267.115 363.212 268.142C374.339 269.17 385.063 272.824 394.502 278.805C403.941 284.786 411.826 292.921 417.508 302.544L412.724 305.375Z" fill="#E6E6E6"/>
<path d="M415.344 377.794L410.73 374.692C417.563 364.501 421.376 352.586 421.729 340.322C422.081 328.057 418.96 315.942 412.724 305.376L417.508 302.544C424.279 314.015 427.668 327.167 427.286 340.481C426.903 353.796 422.763 366.731 415.344 377.794V377.794Z" fill="black"/>
<path d="M304.114 385.539C292.623 372.705 286.221 356.113 286.115 338.888C286.008 321.662 292.204 304.992 303.535 292.018L307.721 295.676C297.283 307.628 291.575 322.985 291.674 338.854C291.772 354.722 297.669 370.007 308.255 381.83L304.114 385.539Z" fill="black"/>
<path d="M356.714 409.053C346.787 409.045 336.973 406.947 327.91 402.896C318.848 398.845 310.74 392.931 304.114 385.539L308.255 381.83C314.864 389.214 323.074 394.99 332.257 398.718C341.439 402.445 351.352 404.025 361.239 403.336C371.125 402.648 380.724 399.709 389.301 394.744C397.879 389.78 405.208 382.921 410.73 374.692L415.344 377.794C408.89 387.418 400.164 395.305 389.939 400.757C379.713 406.208 368.302 409.058 356.714 409.053V409.053Z" fill="black"/>
<path d="M590.993 305.032H533.736V362.289H590.993V305.032Z" fill="#E6E6E6"/>
<path d="M703.576 0H0V29.8905H703.576V0Z" fill="black"/>
<path d="M22.2122 20.8216C25.2719 20.8216 27.7522 18.3413 27.7522 15.2817C27.7522 12.222 25.2719 9.7417 22.2122 9.7417C19.1526 9.7417 16.6722 12.222 16.6722 15.2817C16.6722 18.3413 19.1526 20.8216 22.2122 20.8216Z" fill="white"/>
<path d="M43.2405 20.8216C46.3002 20.8216 48.7805 18.3413 48.7805 15.2817C48.7805 12.222 46.3002 9.7417 43.2405 9.7417C40.1809 9.7417 37.7006 12.222 37.7006 15.2817C37.7006 18.3413 40.1809 20.8216 43.2405 20.8216Z" fill="white"/>
<path d="M64.2689 20.8216C67.3285 20.8216 69.8088 18.3413 69.8088 15.2817C69.8088 12.222 67.3285 9.7417 64.2689 9.7417C61.2092 9.7417 58.7289 12.222 58.7289 15.2817C58.7289 18.3413 61.2092 20.8216 64.2689 20.8216Z" fill="white"/>
<path d="M230.743 481.636H227.074V495.517H226.895L217.31 481.636H214.009V502H217.697V488.129H217.866L227.462 502H230.743V481.636ZM241.265 502.298C245.74 502.298 248.583 499.146 248.583 494.423C248.583 489.69 245.74 486.528 241.265 486.528C236.791 486.528 233.947 489.69 233.947 494.423C233.947 499.146 236.791 502.298 241.265 502.298ZM241.285 499.415C238.809 499.415 237.596 497.207 237.596 494.413C237.596 491.619 238.809 489.382 241.285 489.382C243.721 489.382 244.934 491.619 244.934 494.413C244.934 497.207 243.721 499.415 241.285 499.415ZM269.81 487.234H273.359C273.29 483.794 270.357 481.358 266.021 481.358C261.746 481.358 258.534 483.764 258.544 487.364C258.544 490.287 260.622 491.967 263.973 492.832L266.29 493.429C268.487 493.986 269.939 494.672 269.949 496.253C269.939 497.993 268.288 499.156 265.882 499.156C263.575 499.156 261.786 498.122 261.636 495.984H258.007C258.156 500.031 261.169 502.308 265.912 502.308C270.794 502.308 273.628 499.872 273.638 496.283C273.628 492.753 270.714 491.142 267.652 490.416L265.743 489.939C264.072 489.541 262.263 488.835 262.283 487.135C262.293 485.604 263.665 484.48 265.972 484.48C268.169 484.48 269.621 485.504 269.81 487.234ZM280.367 493.051C280.367 490.844 281.739 489.571 283.668 489.571C285.557 489.571 286.671 490.774 286.671 492.832V502H290.27V492.276C290.27 488.587 288.182 486.528 285.01 486.528C282.664 486.528 281.172 487.592 280.466 489.322H280.287V481.636H276.767V502H280.367V493.051ZM298.334 502.308C300.73 502.308 302.162 501.185 302.819 499.902H302.938V502H306.398V491.778C306.398 487.741 303.107 486.528 300.194 486.528C296.982 486.528 294.516 487.96 293.721 490.744L297.081 491.222C297.439 490.178 298.453 489.283 300.213 489.283C301.884 489.283 302.799 490.138 302.799 491.639V491.699C302.799 492.733 301.715 492.783 299.02 493.071C296.057 493.389 293.223 494.274 293.223 497.714C293.223 500.717 295.421 502.308 298.334 502.308ZM299.269 499.663C297.767 499.663 296.694 498.977 296.694 497.655C296.694 496.273 297.897 495.696 299.507 495.467C300.452 495.338 302.341 495.099 302.809 494.722V496.521C302.809 498.222 301.436 499.663 299.269 499.663ZM310.017 502H313.617V493.021C313.617 491.082 315.078 489.71 317.057 489.71C317.664 489.71 318.419 489.82 318.728 489.919V486.608C318.4 486.548 317.833 486.509 317.435 486.509C315.685 486.509 314.223 487.503 313.667 489.273H313.507V486.727H310.017V502ZM327.251 502.298C330.811 502.298 333.257 500.558 333.893 497.903L330.533 497.526C330.045 498.818 328.852 499.494 327.301 499.494C324.974 499.494 323.433 497.963 323.403 495.348H334.043V494.244C334.043 488.885 330.821 486.528 327.062 486.528C322.688 486.528 319.834 489.74 319.834 494.453C319.834 499.246 322.648 502.298 327.251 502.298ZM323.413 492.922C323.523 490.973 324.964 489.332 327.112 489.332C329.18 489.332 330.572 490.844 330.592 492.922H323.413ZM342.755 502.268C345.38 502.268 346.564 500.707 347.13 499.594H347.349V502H350.889V481.636H347.279V489.253H347.13C346.583 488.149 345.46 486.528 342.765 486.528C339.235 486.528 336.461 489.293 336.461 494.384C336.461 499.415 339.156 502.268 342.755 502.268ZM343.76 499.315C341.383 499.315 340.13 497.227 340.13 494.364C340.13 491.52 341.363 489.482 343.76 489.482C346.076 489.482 347.349 491.401 347.349 494.364C347.349 497.327 346.056 499.315 343.76 499.315ZM361.829 502H365.518V495.119H369.415C374.119 495.119 376.644 492.295 376.644 488.378C376.644 484.49 374.148 481.636 369.465 481.636H361.829V502ZM365.518 492.087V484.719H368.898C371.663 484.719 372.886 486.21 372.886 488.378C372.886 490.545 371.663 492.087 368.918 492.087H365.518ZM386.132 502.298C390.607 502.298 393.451 499.146 393.451 494.423C393.451 489.69 390.607 486.528 386.132 486.528C381.658 486.528 378.814 489.69 378.814 494.423C378.814 499.146 381.658 502.298 386.132 502.298ZM386.152 499.415C383.676 499.415 382.463 497.207 382.463 494.413C382.463 491.619 383.676 489.382 386.152 489.382C388.588 489.382 389.801 491.619 389.801 494.413C389.801 497.207 388.588 499.415 386.152 499.415ZM396.506 502H400.105V493.021C400.105 491.082 401.567 489.71 403.545 489.71C404.152 489.71 404.908 489.82 405.216 489.919V486.608C404.888 486.548 404.321 486.509 403.923 486.509C402.173 486.509 400.712 487.503 400.155 489.273H399.996V486.727H396.506V502ZM416.054 486.727H413.041V483.068H409.442V486.727H407.274V489.511H409.442V498.003C409.422 500.876 411.51 502.288 414.214 502.209C415.239 502.179 415.945 501.98 416.332 501.851L415.726 499.037C415.527 499.087 415.119 499.176 414.672 499.176C413.767 499.176 413.041 498.858 413.041 497.406V489.511H416.054V486.727ZM426.8 486.727H423.628V485.524C423.628 484.331 424.125 483.665 425.468 483.665C426.034 483.665 426.512 483.794 426.81 483.884L427.536 481.099C427.069 480.94 426.044 480.682 424.801 480.682C422.147 480.682 420.029 482.203 420.029 485.286V486.727H417.772V489.511H420.029V502H423.628V489.511H426.8V486.727ZM435.707 502.298C440.181 502.298 443.025 499.146 443.025 494.423C443.025 489.69 440.181 486.528 435.707 486.528C431.232 486.528 428.388 489.69 428.388 494.423C428.388 499.146 431.232 502.298 435.707 502.298ZM435.727 499.415C433.251 499.415 432.038 497.207 432.038 494.413C432.038 491.619 433.251 489.382 435.727 489.382C438.163 489.382 439.376 491.619 439.376 494.413C439.376 497.207 438.163 499.415 435.727 499.415ZM449.679 481.636H446.08V502H449.679V481.636ZM453.381 502H456.98V486.727H453.381V502ZM455.19 484.56C456.334 484.56 457.268 483.685 457.268 482.611C457.268 481.527 456.334 480.652 455.19 480.652C454.037 480.652 453.102 481.527 453.102 482.611C453.102 483.685 454.037 484.56 455.19 484.56ZM467.343 502.298C471.818 502.298 474.662 499.146 474.662 494.423C474.662 489.69 471.818 486.528 467.343 486.528C462.869 486.528 460.025 489.69 460.025 494.423C460.025 499.146 462.869 502.298 467.343 502.298ZM467.363 499.415C464.887 499.415 463.674 497.207 463.674 494.413C463.674 491.619 464.887 489.382 467.363 489.382C469.799 489.382 471.012 491.619 471.012 494.413C471.012 497.207 469.799 499.415 467.363 499.415ZM489.788 490.764C489.29 488.179 487.222 486.528 483.643 486.528C479.964 486.528 477.458 488.338 477.468 491.162C477.458 493.389 478.83 494.861 481.763 495.467L484.369 496.014C485.771 496.322 486.427 496.889 486.427 497.754C486.427 498.798 485.293 499.584 483.583 499.584C481.933 499.584 480.859 498.868 480.55 497.496L477.04 497.834C477.488 500.638 479.844 502.298 483.593 502.298C487.411 502.298 490.106 500.32 490.116 497.426C490.106 495.249 488.704 493.916 485.82 493.29L483.215 492.733C481.664 492.385 481.048 491.848 481.058 490.963C481.048 489.929 482.191 489.213 483.692 489.213C485.353 489.213 486.228 490.118 486.506 491.122L489.788 490.764Z" fill="black"/>
</svg>
