<svg width="489" height="403" viewBox="0 0 489 403" fill="none" xmlns="http://www.w3.org/2000/svg">
<path d="M139.065 380.545H135.92V392.443H135.767L127.551 380.545H124.722V398H127.884V386.111H128.028L136.253 398H139.065V380.545ZM148.085 398.256C151.92 398.256 154.357 395.554 154.357 391.506C154.357 387.449 151.92 384.739 148.085 384.739C144.249 384.739 141.812 387.449 141.812 391.506C141.812 395.554 144.249 398.256 148.085 398.256ZM148.102 395.784C145.979 395.784 144.94 393.892 144.94 391.497C144.94 389.102 145.979 387.185 148.102 387.185C150.19 387.185 151.229 389.102 151.229 391.497C151.229 393.892 150.19 395.784 148.102 395.784ZM173.276 388.369C172.849 386.153 171.077 384.739 168.009 384.739C164.855 384.739 162.707 386.29 162.716 388.71C162.707 390.619 163.884 391.881 166.398 392.401L168.631 392.869C169.832 393.134 170.395 393.619 170.395 394.361C170.395 395.256 169.423 395.929 167.957 395.929C166.543 395.929 165.622 395.315 165.358 394.139L162.349 394.429C162.733 396.832 164.753 398.256 167.966 398.256C171.239 398.256 173.548 396.56 173.557 394.08C173.548 392.213 172.347 391.071 169.875 390.534L167.642 390.057C166.312 389.759 165.784 389.298 165.793 388.54C165.784 387.653 166.764 387.04 168.051 387.04C169.474 387.04 170.224 387.815 170.463 388.676L173.276 388.369ZM179.186 390.33C179.186 388.438 180.362 387.347 182.016 387.347C183.635 387.347 184.589 388.378 184.589 390.142V398H187.675V389.665C187.675 386.503 185.885 384.739 183.166 384.739C181.155 384.739 179.876 385.651 179.271 387.134H179.118V380.545H176.101V398H179.186V390.33ZM194.587 398.264C196.641 398.264 197.868 397.301 198.43 396.202H198.533V398H201.499V389.239C201.499 385.778 198.678 384.739 196.18 384.739C193.428 384.739 191.314 385.966 190.632 388.352L193.513 388.761C193.82 387.866 194.689 387.099 196.197 387.099C197.629 387.099 198.413 387.832 198.413 389.119V389.17C198.413 390.057 197.484 390.099 195.175 390.347C192.635 390.619 190.206 391.378 190.206 394.327C190.206 396.901 192.089 398.264 194.587 398.264ZM195.388 395.997C194.101 395.997 193.18 395.409 193.18 394.276C193.18 393.091 194.212 392.597 195.592 392.401C196.402 392.29 198.021 392.085 198.422 391.761V393.304C198.422 394.761 197.246 395.997 195.388 395.997ZM204.601 398H207.686V390.304C207.686 388.642 208.939 387.466 210.635 387.466C211.155 387.466 211.803 387.56 212.067 387.645V384.807C211.786 384.756 211.3 384.722 210.959 384.722C209.459 384.722 208.206 385.574 207.729 387.091H207.592V384.909H204.601V398ZM219.373 398.256C222.424 398.256 224.521 396.764 225.066 394.489L222.185 394.165C221.768 395.273 220.745 395.852 219.415 395.852C217.421 395.852 216.1 394.54 216.075 392.298H225.194V391.352C225.194 386.759 222.433 384.739 219.211 384.739C215.461 384.739 213.015 387.491 213.015 391.531C213.015 395.639 215.427 398.256 219.373 398.256ZM216.083 390.219C216.177 388.548 217.413 387.142 219.254 387.142C221.026 387.142 222.219 388.438 222.237 390.219H216.083ZM232.662 398.23C234.912 398.23 235.926 396.892 236.412 395.938H236.599V398H239.634V380.545H236.54V387.074H236.412C235.943 386.128 234.98 384.739 232.67 384.739C229.645 384.739 227.267 387.108 227.267 391.472C227.267 395.784 229.577 398.23 232.662 398.23ZM233.523 395.699C231.486 395.699 230.412 393.909 230.412 391.455C230.412 389.017 231.469 387.27 233.523 387.27C235.509 387.27 236.599 388.915 236.599 391.455C236.599 393.994 235.491 395.699 233.523 395.699ZM248.874 402.909H251.96V395.938H252.087C252.573 396.892 253.587 398.23 255.837 398.23C258.923 398.23 261.232 395.784 261.232 391.472C261.232 387.108 258.854 384.739 255.829 384.739C253.519 384.739 252.556 386.128 252.087 387.074H251.908V384.909H248.874V402.909ZM251.9 391.455C251.9 388.915 252.991 387.27 254.977 387.27C257.031 387.27 258.087 389.017 258.087 391.455C258.087 393.909 257.013 395.699 254.977 395.699C253.008 395.699 251.9 393.994 251.9 391.455ZM269.585 398.256C273.42 398.256 275.857 395.554 275.857 391.506C275.857 387.449 273.42 384.739 269.585 384.739C265.749 384.739 263.312 387.449 263.312 391.506C263.312 395.554 265.749 398.256 269.585 398.256ZM269.602 395.784C267.479 395.784 266.44 393.892 266.44 391.497C266.44 389.102 267.479 387.185 269.602 387.185C271.69 387.185 272.729 389.102 272.729 391.497C272.729 393.892 271.69 395.784 269.602 395.784ZM278.476 398H281.561V390.304C281.561 388.642 282.814 387.466 284.51 387.466C285.03 387.466 285.678 387.56 285.942 387.645V384.807C285.661 384.756 285.175 384.722 284.834 384.722C283.334 384.722 282.081 385.574 281.604 387.091H281.467V384.909H278.476V398ZM295.232 384.909H292.649V381.773H289.564V384.909H287.706V387.295H289.564V394.574C289.547 397.037 291.337 398.247 293.655 398.179C294.533 398.153 295.138 397.983 295.47 397.872L294.95 395.46C294.78 395.503 294.43 395.58 294.047 395.58C293.271 395.58 292.649 395.307 292.649 394.062V387.295H295.232V384.909ZM304.442 384.909H301.724V383.878C301.724 382.855 302.15 382.284 303.3 382.284C303.786 382.284 304.195 382.395 304.451 382.472L305.073 380.085C304.673 379.949 303.795 379.727 302.729 379.727C300.454 379.727 298.638 381.031 298.638 383.673V384.909H296.704V387.295H298.638V398H301.724V387.295H304.442V384.909ZM312.077 398.256C315.912 398.256 318.349 395.554 318.349 391.506C318.349 387.449 315.912 384.739 312.077 384.739C308.241 384.739 305.804 387.449 305.804 391.506C305.804 395.554 308.241 398.256 312.077 398.256ZM312.094 395.784C309.972 395.784 308.932 393.892 308.932 391.497C308.932 389.102 309.972 387.185 312.094 387.185C314.182 387.185 315.222 389.102 315.222 391.497C315.222 393.892 314.182 395.784 312.094 395.784ZM324.053 380.545H320.968V398H324.053V380.545ZM327.226 398H330.311V384.909H327.226V398ZM328.777 383.051C329.757 383.051 330.558 382.301 330.558 381.381C330.558 380.452 329.757 379.702 328.777 379.702C327.788 379.702 326.987 380.452 326.987 381.381C326.987 382.301 327.788 383.051 328.777 383.051ZM339.194 398.256C343.029 398.256 345.467 395.554 345.467 391.506C345.467 387.449 343.029 384.739 339.194 384.739C335.359 384.739 332.921 387.449 332.921 391.506C332.921 395.554 335.359 398.256 339.194 398.256ZM339.211 395.784C337.089 395.784 336.049 393.892 336.049 391.497C336.049 389.102 337.089 387.185 339.211 387.185C341.299 387.185 342.339 389.102 342.339 391.497C342.339 393.892 341.299 395.784 339.211 395.784ZM358.432 388.369C358.006 386.153 356.233 384.739 353.165 384.739C350.011 384.739 347.864 386.29 347.872 388.71C347.864 390.619 349.04 391.881 351.554 392.401L353.787 392.869C354.989 393.134 355.551 393.619 355.551 394.361C355.551 395.256 354.58 395.929 353.114 395.929C351.699 395.929 350.778 395.315 350.514 394.139L347.506 394.429C347.889 396.832 349.909 398.256 353.122 398.256C356.395 398.256 358.705 396.56 358.713 394.08C358.705 392.213 357.503 391.071 355.031 390.534L352.798 390.057C351.469 389.759 350.94 389.298 350.949 388.54C350.94 387.653 351.92 387.04 353.207 387.04C354.631 387.04 355.381 387.815 355.619 388.676L358.432 388.369Z" fill="black"/>
<path d="M44.0261 0C43.3031 0.000794072 42.6099 0.288351 42.0987 0.799591C41.5874 1.31083 41.2999 2.00399 41.2991 2.72699V95.739C41.2999 96.462 41.5874 97.1552 42.0987 97.6664C42.6099 98.1776 43.3031 98.4652 44.0261 98.466H361.182C361.905 98.4652 362.598 98.1776 363.109 97.6664C363.621 97.1552 363.908 96.462 363.909 95.739V2.72699C363.908 2.00399 363.621 1.31083 363.109 0.799591C362.598 0.288351 361.905 0.000794072 361.182 0H44.0261Z" fill="#E6E6E6"/>
<path d="M48.1321 91.633H357.074V6.83301H48.1321V91.633Z" fill="white"/>
<path d="M318.078 74.04C317.485 74.04 316.897 74.1569 316.349 74.3839C315.801 74.6109 315.303 74.9437 314.884 75.3632C314.464 75.7827 314.131 76.2807 313.904 76.8288C313.677 77.3769 313.561 77.9643 313.561 78.5575C313.561 79.1508 313.677 79.7382 313.904 80.2863C314.131 80.8344 314.464 81.3324 314.884 81.7519C315.303 82.1714 315.801 82.5041 316.349 82.7312C316.897 82.9582 317.485 83.075 318.078 83.075H336.147C336.74 83.075 337.328 82.9582 337.876 82.7312C338.424 82.5041 338.922 82.1714 339.341 81.7519C339.761 81.3324 340.094 80.8344 340.321 80.2863C340.548 79.7382 340.665 79.1508 340.665 78.5575C340.665 77.9643 340.548 77.3769 340.321 76.8288C340.094 76.2807 339.761 75.7827 339.341 75.3632C338.922 74.9437 338.424 74.6109 337.876 74.3839C337.328 74.1569 336.74 74.04 336.147 74.04H318.078Z" fill="black"/>
<path d="M340.665 65.2781H132.077V66.4671H340.665V65.2781Z" fill="#E6E6E6"/>
<path d="M88.476 75.5441C103.007 75.5441 114.787 63.7643 114.787 49.2331C114.787 34.702 103.007 22.9221 88.476 22.9221C73.9449 22.9221 62.165 34.702 62.165 49.2331C62.165 63.7643 73.9449 75.5441 88.476 75.5441Z" fill="#E6E6E6"/>
<path d="M132.409 58.641L131.75 57.652L153.425 43.202L168.288 50.337L189.667 36.678L189.956 36.801L232.196 54.82L266.063 38.183L298.95 51.516L340.273 59.916L341.061 60.806L299.186 52.895L266.109 39.484L232.229 56.126L189.777 38.017L168.369 51.694L153.519 44.566L132.409 58.641Z" fill="#3F3D56"/>
<path d="M135.94 74.6631C134.926 74.6794 133.96 75.0935 133.249 75.8161C132.538 76.5387 132.139 77.5118 132.139 78.5256C132.139 79.5394 132.538 80.5125 133.249 81.2351C133.96 81.9577 134.926 82.3718 135.94 82.3881H176.35C177.374 82.4032 178.361 82.0114 179.096 81.2988C179.831 80.5862 180.253 79.611 180.269 78.5875C180.286 77.5639 179.895 76.5757 179.184 75.8399C178.472 75.1041 177.497 74.6808 176.474 74.6631C176.433 74.6624 176.391 74.6624 176.35 74.6631H135.94Z" fill="#E6E6E6"/>
<path d="M99.0594 48.9062C98.7635 48.6103 98.3622 48.444 97.9437 48.444C97.5252 48.444 97.1238 48.6102 96.8279 48.9061L96.8278 48.9062L90.054 55.68V38.9765C90.0505 38.5602 89.8827 38.1623 89.5872 37.8692C89.2916 37.5761 88.8923 37.4116 88.476 37.4116C88.0598 37.4116 87.6604 37.5761 87.3648 37.8692C87.0693 38.1623 86.9015 38.5602 86.8981 38.9765V55.68L80.1242 48.9062C79.8288 48.6106 79.4282 48.4443 79.0104 48.4437C78.5925 48.4431 78.1914 48.6083 77.8952 48.903C77.599 49.1977 77.4317 49.5979 77.4302 50.0158C77.4286 50.4336 77.5929 50.8351 77.8869 51.132L77.8926 51.1377L87.3602 60.6053C87.6561 60.9012 88.0575 61.0674 88.476 61.0674C88.8945 61.0674 89.2959 60.9012 89.5918 60.6053L99.0594 51.1377C99.3553 50.8418 99.5215 50.4404 99.5215 50.0219C99.5215 49.6035 99.3553 49.2021 99.0594 48.9062Z" fill="white"/>
<path d="M168.801 126.466C168.078 126.467 167.385 126.754 166.874 127.266C166.362 127.777 166.075 128.47 166.074 129.193V222.205C166.075 222.928 166.362 223.621 166.874 224.132C167.385 224.644 168.078 224.931 168.801 224.932H485.958C486.681 224.931 487.374 224.644 487.885 224.132C488.397 223.621 488.684 222.928 488.685 222.205V129.193C488.684 128.47 488.397 127.777 487.885 127.266C487.374 126.754 486.681 126.467 485.958 126.466H168.801Z" fill="#E6E6E6"/>
<path d="M172.908 218.099H481.851V133.299H172.908V218.099Z" fill="white"/>
<path d="M442.854 200.508C441.656 200.508 440.507 200.984 439.66 201.831C438.812 202.678 438.336 203.827 438.336 205.026C438.336 206.224 438.812 207.373 439.66 208.22C440.507 209.067 441.656 209.543 442.854 209.543H460.921C462.119 209.543 463.268 209.067 464.115 208.22C464.963 207.373 465.438 206.224 465.438 205.026C465.438 203.827 464.963 202.678 464.115 201.831C463.268 200.984 462.119 200.508 460.921 200.508H442.854Z" fill="black"/>
<path d="M465.441 191.745H256.853V192.934H465.441V191.745Z" fill="#E6E6E6"/>
<path d="M213.251 202.011C227.782 202.011 239.562 190.231 239.562 175.7C239.562 161.169 227.782 149.389 213.251 149.389C198.72 149.389 186.94 161.169 186.94 175.7C186.94 190.231 198.72 202.011 213.251 202.011Z" fill="black"/>
<path d="M257.183 185.108L256.523 184.119L278.198 169.669L293.062 176.804L314.441 163.145L314.73 163.268L356.969 181.287L390.837 164.65L423.724 177.982L465.047 141.382L465.835 142.272L423.96 179.358L390.883 165.948L357.004 182.59L314.552 164.481L293.144 178.158L278.298 171.033L257.183 185.108Z" fill="#3F3D56"/>
<path d="M260.716 201.129C259.692 201.112 258.702 201.503 257.966 202.216C257.23 202.929 256.807 203.904 256.791 204.929C256.774 205.953 257.165 206.942 257.877 207.678C258.59 208.415 259.566 208.837 260.59 208.854V208.854C260.632 208.855 260.674 208.855 260.716 208.854H301.126C302.14 208.838 303.106 208.424 303.817 207.701C304.528 206.979 304.927 206.005 304.927 204.992C304.927 203.978 304.528 203.005 303.817 202.282C303.106 201.56 302.14 201.145 301.126 201.129H260.716Z" fill="#E6E6E6"/>
<path d="M202.668 176.027C202.814 176.174 202.988 176.29 203.18 176.369C203.371 176.448 203.576 176.489 203.783 176.489C203.991 176.489 204.196 176.448 204.387 176.369C204.579 176.29 204.753 176.174 204.899 176.027L204.899 176.027L211.673 169.253V185.957C211.673 186.375 211.839 186.777 212.135 187.072C212.431 187.368 212.833 187.535 213.251 187.535C213.67 187.535 214.071 187.368 214.367 187.072C214.663 186.777 214.829 186.375 214.829 185.957V169.253L221.603 176.027C221.749 176.174 221.923 176.29 222.115 176.369C222.306 176.448 222.511 176.489 222.719 176.489C222.926 176.489 223.131 176.448 223.323 176.369C223.514 176.29 223.688 176.174 223.835 176.027C223.981 175.881 224.097 175.707 224.177 175.515C224.256 175.324 224.297 175.118 224.297 174.911C224.297 174.704 224.256 174.499 224.177 174.307C224.097 174.116 223.981 173.942 223.834 173.795L214.367 164.328C214.071 164.032 213.67 163.866 213.251 163.866C212.833 163.866 212.431 164.032 212.135 164.328L202.668 173.795C202.372 174.091 202.206 174.493 202.206 174.911C202.206 175.33 202.372 175.731 202.668 176.027V176.027Z" fill="white"/>
<path d="M2.72701 252.932C2.004 252.933 1.31085 253.22 0.799606 253.732C0.288367 254.243 0.000794072 254.936 0 255.659V348.671C0.000794072 349.394 0.288367 350.087 0.799606 350.599C1.31085 351.11 2.004 351.397 2.72701 351.398H319.883C320.606 351.397 321.299 351.11 321.81 350.599C322.322 350.087 322.609 349.394 322.61 348.671V255.659C322.609 254.936 322.322 254.243 321.81 253.732C321.299 253.22 320.606 252.933 319.883 252.932H2.72701Z" fill="#E6E6E6"/>
<path d="M6.83398 344.565H315.777V259.765H6.83398V344.565Z" fill="white"/>
<path d="M276.779 326.973C275.581 326.973 274.432 327.449 273.585 328.296C272.737 329.143 272.261 330.293 272.261 331.491C272.261 332.689 272.737 333.838 273.585 334.685C274.432 335.532 275.581 336.008 276.779 336.008H294.848C296.046 336.008 297.195 335.532 298.042 334.685C298.89 333.838 299.365 332.689 299.365 331.491C299.365 330.293 298.89 329.143 298.042 328.296C297.195 327.449 296.046 326.973 294.848 326.973H276.779Z" fill="black"/>
<path d="M299.366 318.211H90.7781V319.4H299.366V318.211Z" fill="#E6E6E6"/>
<path d="M47.177 328.476C61.7081 328.476 73.488 316.696 73.488 302.165C73.488 287.634 61.7081 275.854 47.177 275.854C32.6458 275.854 20.866 287.634 20.866 302.165C20.866 316.696 32.6458 328.476 47.177 328.476Z" fill="black"/>
<path d="M91.108 311.574L90.449 310.585L112.124 296.134L126.987 303.269L148.367 289.606L190.895 307.747L224.762 291.11L257.645 304.447L298.968 287.847L299.756 288.737L257.886 305.826L224.809 292.416L190.93 309.058L148.478 290.949L127.071 304.627L112.221 297.499L91.108 311.574Z" fill="#3F3D56"/>
<path d="M94.6409 327.594C93.6273 327.61 92.6607 328.024 91.9496 328.747C91.2386 329.47 90.8401 330.443 90.8401 331.457C90.8401 332.47 91.2386 333.443 91.9496 334.166C92.6607 334.889 93.6273 335.303 94.6409 335.319H135.051C135.558 335.327 136.062 335.236 136.534 335.049C137.006 334.863 137.436 334.585 137.801 334.232C138.165 333.879 138.457 333.458 138.658 332.993C138.86 332.527 138.968 332.027 138.976 331.519C138.985 331.012 138.893 330.508 138.706 330.037C138.52 329.565 138.242 329.134 137.89 328.77C137.537 328.405 137.116 328.114 136.65 327.912C136.185 327.71 135.684 327.602 135.177 327.594C135.135 327.593 135.093 327.593 135.051 327.594H94.6409Z" fill="#E6E6E6"/>
<path d="M36.5935 302.492C36.7401 302.639 36.914 302.755 37.1054 302.834C37.2968 302.913 37.502 302.954 37.7092 302.954C37.9164 302.954 38.1216 302.913 38.3131 302.834C38.5045 302.755 38.6785 302.639 38.825 302.492L38.8251 302.492L45.5989 295.718V312.422C45.6008 312.838 45.7672 313.237 46.0619 313.531C46.3565 313.825 46.7555 313.991 47.1719 313.993C47.5883 313.994 47.9883 313.831 48.2849 313.538C48.5814 313.246 48.7503 312.848 48.7549 312.432V295.718L55.5287 302.492C55.8238 302.789 56.2248 302.956 56.6433 302.957C57.0618 302.958 57.4636 302.793 57.7603 302.498C58.0569 302.203 58.2242 301.802 58.2253 301.383C58.2264 300.965 58.0612 300.563 57.766 300.266L57.7603 300.261L48.2927 290.793C47.9968 290.497 47.5954 290.331 47.1769 290.331C46.7584 290.331 46.3571 290.497 46.0611 290.793L36.5935 300.261C36.447 300.407 36.3308 300.581 36.2515 300.772C36.1722 300.964 36.1313 301.169 36.1313 301.376C36.1313 301.584 36.1722 301.789 36.2515 301.98C36.3308 302.172 36.447 302.346 36.5935 302.492V302.492Z" fill="white"/>
</svg>
